<?xml version="1.0" standalone="no"?>
<!DOCTYPE svg PUBLIC "-//W3C//DTD SVG 20010904//EN"
 "http://www.w3.org/TR/2001/REC-SVG-20010904/DTD/svg10.dtd">
<svg version="1.0" xmlns="http://www.w3.org/2000/svg"
 width="75px" height="75px" viewBox= "0 0 200 200"
 preserveAspectRatio="xMidYMid meet">

<g transform="translate(0.000000,231.000000) scale(0.100000,-0.100000)"
fill="#000000" stroke="none">
<path d="M187 2113 c-9 -219 -9 -1613 1 -1613 7 0 565 567 570 580 1 3 -16 28
-39 54 l-42 48 -177 -177 -177 -177 -6 264 c-4 145 -7 440 -7 656 l0 392 130
0 130 0 0 -358 0 -359 182 -209 c399 -460 583 -669 593 -676 16 -12 635 -10
635 2 0 6 -131 160 -292 343 -160 182 -332 378 -381 435 -49 56 -92 102 -96
102 -4 0 -26 -20 -50 -44 l-44 -45 134 -153 c118 -134 386 -442 427 -490 14
-17 7 -18 -129 -18 l-144 0 -350 399 -350 400 -6 128 c-4 70 -7 251 -8 401
l-1 272 -248 0 -249 0 -6 -157z"/>
<path d="M1042 1995 c-139 -151 -252 -277 -252 -281 0 -3 31 -41 69 -84 l69
-79 46 46 45 46 -30 34 -30 34 38 43 c21 23 108 120 193 214 l155 172 132 0
c73 0 133 -3 133 -7 -1 -5 -165 -174 -365 -378 l-363 -369 41 -49 41 -50 260
264 c142 145 358 363 478 484 120 122 218 224 218 228 0 4 -141 7 -313 7
l-314 0 -251 -275z"/>
</g>
</svg>
